<svg width="22" height="94" viewBox="0 0 22 94" fill="none" xmlns="http://www.w3.org/2000/svg">
<path d="M21.0084 0.968384L19.2773 64.6225H3.0308L1.25523 0.968384H21.0084ZM11.154 93.0316C8.22434 93.0316 5.70895 91.9958 3.60786 89.9244C1.50677 87.8233 0.471023 85.3079 0.500617 82.3782C0.471023 79.4781 1.50677 76.9923 3.60786 74.9208C5.70895 72.8493 8.22434 71.8136 11.154 71.8136C13.9653 71.8136 16.4363 72.8493 18.567 74.9208C20.6977 76.9923 21.7778 79.4781 21.8074 82.3782C21.7778 84.3313 21.26 86.1217 20.2538 87.7493C19.2773 89.3473 17.99 90.6346 16.392 91.6111C14.7939 92.5581 13.048 93.0316 11.154 93.0316Z" fill="#FECC00"/>
</svg>
