<svg width="21" height="20" viewBox="0 0 21 20" fill="none" xmlns="http://www.w3.org/2000/svg">
<mask id="mask0_16016_718" style="mask-type:alpha" maskUnits="userSpaceOnUse" x="3" y="1" width="15" height="18">
<path fill-rule="evenodd" clip-rule="evenodd" d="M12.9088 2.38795C12.4523 1.9314 11.8368 1.66865 11.1912 1.66713C10.9728 1.66663 10.7427 1.66663 10.4999 1.66663C8.16637 1.66663 6.99959 1.66663 6.10829 2.12077C5.32429 2.52023 4.68686 3.15766 4.28739 3.94167C3.83325 4.83297 3.83325 5.99974 3.83325 8.33329V11.6666C3.83325 14.0002 3.83325 15.167 4.28739 16.0583C4.68686 16.8423 5.32429 17.4797 6.10829 17.8791C6.99959 18.3333 8.16637 18.3333 10.4999 18.3333C12.8335 18.3333 14.0003 18.3333 14.8915 17.8791C15.6756 17.4797 16.313 16.8423 16.7124 16.0583C17.1666 15.167 17.1666 14.0002 17.1666 11.6666V8.33329C17.1666 8.09058 17.1666 7.86049 17.1661 7.64203C17.1646 6.99637 16.9018 6.38089 16.4453 5.92435L12.9088 2.38795Z" fill="white"/>
</mask>
<g mask="url(#mask0_16016_718)">
<path d="M6.10829 2.12077L6.67578 3.23453L6.10829 2.12077ZM4.28739 3.94167L5.40115 4.50915L4.28739 3.94167ZM4.28739 16.0583L3.17364 16.6257L4.28739 16.0583ZM6.10829 17.8791L6.67578 16.7654L6.10829 17.8791ZM14.8915 17.8791L14.3241 16.7654L14.8915 17.8791ZM16.7124 16.0583L15.5987 15.4908L16.7124 16.0583ZM16.4453 5.92435L15.5614 6.80824L16.4453 5.92435ZM10.4999 2.91663C10.7429 2.91663 10.9715 2.91663 11.1883 2.91714L11.1941 0.417141C10.9739 0.416626 10.7423 0.416627 10.4999 0.416627V2.91663ZM6.67578 3.23453C6.91584 3.1122 7.24755 3.01969 7.86505 2.96924C8.49714 2.9176 9.3125 2.91663 10.4999 2.91663V0.416627C9.35375 0.416627 8.41898 0.415654 7.66147 0.477546C6.88937 0.540629 6.19204 0.675188 5.5408 1.00701L6.67578 3.23453ZM5.40115 4.50915C5.68078 3.96035 6.12698 3.51415 6.67578 3.23453L5.5408 1.00701C4.52159 1.52632 3.69294 2.35497 3.17364 3.37418L5.40115 4.50915ZM5.08325 8.33329C5.08325 7.14589 5.08423 6.33052 5.13587 5.69843C5.18632 5.08093 5.27883 4.74922 5.40115 4.50915L3.17364 3.37418C2.84181 4.02541 2.70725 4.72274 2.64417 5.49484C2.58228 6.25235 2.58325 7.18714 2.58325 8.33329H5.08325ZM5.08325 11.6666V8.33329H2.58325V11.6666H5.08325ZM5.40115 15.4908C5.27883 15.2507 5.18632 14.919 5.13587 14.3015C5.08423 13.6694 5.08325 12.854 5.08325 11.6666H2.58325C2.58325 12.8128 2.58228 13.7475 2.64417 14.505C2.70725 15.2772 2.84181 15.9745 3.17364 16.6257L5.40115 15.4908ZM6.67578 16.7654C6.12698 16.4858 5.68078 16.0395 5.40115 15.4908L3.17364 16.6257C3.69294 17.645 4.52159 18.4736 5.5408 18.9929L6.67578 16.7654ZM10.4999 17.0833C9.3125 17.0833 8.49714 17.0823 7.86505 17.0307C7.24755 16.9802 6.91584 16.8877 6.67578 16.7654L5.5408 18.9929C6.19204 19.3247 6.88937 19.4593 7.66147 19.5224C8.41898 19.5843 9.35375 19.5833 10.4999 19.5833V17.0833ZM14.3241 16.7654C14.084 16.8877 13.7523 16.9802 13.1348 17.0307C12.5027 17.0823 11.6873 17.0833 10.4999 17.0833V19.5833C11.6461 19.5833 12.5808 19.5843 13.3383 19.5224C14.1105 19.4593 14.8078 19.3247 15.459 18.9929L14.3241 16.7654ZM15.5987 15.4908C15.3191 16.0395 14.8728 16.4858 14.3241 16.7654L15.459 18.9929C16.4783 18.4736 17.3069 17.645 17.8262 16.6257L15.5987 15.4908ZM15.9166 11.6666C15.9166 12.854 15.9156 13.6694 15.864 14.3015C15.8135 14.919 15.721 15.2507 15.5987 15.4908L17.8262 16.6257C18.158 15.9745 18.2926 15.2772 18.3557 14.505C18.4176 13.7475 18.4166 12.8128 18.4166 11.6666H15.9166ZM15.9166 8.33329V11.6666H18.4166V8.33329H15.9166ZM15.9161 7.64494C15.9166 7.86168 15.9166 8.09026 15.9166 8.33329H18.4166C18.4166 8.0909 18.4166 7.8593 18.4161 7.6391L15.9161 7.64494ZM17.3292 5.04046L13.7928 1.50406L12.025 3.27184L15.5614 6.80824L17.3292 5.04046ZM18.4161 7.6391C18.4138 6.65383 18.0128 5.72419 17.3292 5.04046L15.5614 6.80824C15.7908 7.03759 15.9153 7.33892 15.9161 7.64494L18.4161 7.6391ZM11.1883 2.91714C11.4943 2.91785 11.7956 3.04247 12.025 3.27184L13.7928 1.50406C13.109 0.820339 12.1794 0.419446 11.1941 0.417141L11.1883 2.91714Z" fill="#FECC00"/>
<path d="M11.75 2.08337V4.58337C11.75 5.96408 12.8692 7.08337 14.25 7.08337H16.3333" stroke="#FECC00" stroke-width="1.5"/>
</g>
</svg>
